<svg xmlns="http://www.w3.org/2000/svg" width="32" height="32" viewBox="0 0 32 32">
  <!-- Basket body shadow -->
  <ellipse cx="16" cy="22" rx="10" ry="6" fill="#333"/>
  <!-- Basket body -->
  <ellipse cx="16" cy="21" rx="9" ry="5.5" fill="#c8923a"/>
  <!-- Basket weave lines -->
  <line x1="8" y1="21" x2="24" y2="21" stroke="#a07828" stroke-width="0.8"/>
  <line x1="9" y1="19" x2="23" y2="19" stroke="#a07828" stroke-width="0.8"/>
  <line x1="9" y1="23" x2="23" y2="23" stroke="#a07828" stroke-width="0.8"/>
  <line x1="12" y1="16" x2="12" y2="26" stroke="#a07828" stroke-width="0.8"/>
  <line x1="16" y1="15.5" x2="16" y2="26.5" stroke="#a07828" stroke-width="0.8"/>
  <line x1="20" y1="16" x2="20" y2="26" stroke="#a07828" stroke-width="0.8"/>
  <!-- Basket rim -->
  <ellipse cx="16" cy="16" rx="9" ry="3" fill="none" stroke="#8B6914" stroke-width="1.5"/>
  <!-- Berry 1 -->
  <circle cx="13" cy="14" r="2.5" fill="#cc2244"/>
  <circle cx="12.5" cy="13.5" r="1" fill="#ff4466"/>
  <!-- Berry 2 -->
  <circle cx="18" cy="13" r="2.5" fill="#8833aa"/>
  <circle cx="17.5" cy="12.5" r="1" fill="#aa55cc"/>
  <!-- Berry 3 -->
  <circle cx="15.5" cy="11" r="2" fill="#cc2244"/>
  <circle cx="15" cy="10.5" r="0.8" fill="#ff4466"/>
  <!-- Leaf -->
  <path d="M19 10 Q21 8 20 11" fill="#44aa44" stroke="#228822" stroke-width="0.5"/>
</svg>
